<svg width="19" height="20" viewBox="0 0 19 20" fill="none" xmlns="http://www.w3.org/2000/svg">
<path d="M2.125 0C1.02043 0 0.125 0.895431 0.125 2V17.25C0.125 18.3546 1.02043 19.25 2.125 19.25H16.4583C17.5629 19.25 18.4583 18.3546 18.4583 17.25V2C18.4583 0.89543 17.5629 0 16.4583 0H2.125ZM15.0208 13.2688C15.0208 13.5345 14.8054 13.75 14.5396 13.75H4.04375C3.77796 13.75 3.5625 13.5345 3.5625 13.2688C3.5625 13.003 3.77796 12.7875 4.04375 12.7875H14.5396C14.8054 12.7875 15.0208 13.003 15.0208 13.2688ZM15.0208 9.41875C15.0208 9.68454 14.8054 9.9 14.5396 9.9H4.04375C3.77796 9.9 3.5625 9.68454 3.5625 9.41875C3.5625 9.15296 3.77796 8.9375 4.04375 8.9375H14.5396C14.8054 8.9375 15.0208 9.15296 15.0208 9.41875ZM15.0208 5.56875C15.0208 5.83454 14.8054 6.05 14.5396 6.05H4.04375C3.77796 6.05 3.5625 5.83454 3.5625 5.56875C3.5625 5.30296 3.77796 5.0875 4.04375 5.0875H14.5396C14.8054 5.0875 15.0208 5.30296 15.0208 5.56875Z" fill="#8C8C8C"/>
</svg>
