<svg width="22" height="21" viewBox="0 0 22 21" fill="none" xmlns="http://www.w3.org/2000/svg">
<path d="M19 2.33398V4.50065C19 5.69232 18.1 6.66732 17 6.66732C15.9 6.66732 15 5.69232 15 4.50065V2.33398H7V4.50065C7 5.69232 6.1 6.66732 5 6.66732C3.9 6.66732 3 5.69232 3 4.50065V2.33398H0V20.7507H22V2.33398H19Z" fill="#8C8C8C"/>
<path d="M5 5.58366C4.448 5.58366 4 5.09833 4 4.50033V1.25033C4 0.652326 4.448 0.166992 5 0.166992C5.552 0.166992 6 0.652326 6 1.25033V4.50033C6 5.09833 5.552 5.58366 5 5.58366Z" fill="#8C8C8C"/>
<path d="M17 5.58366C16.448 5.58366 16 5.09833 16 4.50033V1.25033C16 0.652326 16.448 0.166992 17 0.166992C17.552 0.166992 18 0.652326 18 1.25033V4.50033C18 5.09833 17.552 5.58366 17 5.58366Z" fill="#8C8C8C"/>
<rect x="12" y="8.83398" width="7" height="8.66667" fill="#F5F5F5"/>
<rect x="3" y="8.83398" width="7" height="8.66667" fill="#F5F5F5"/>
</svg>
