<svg width="24" height="20" viewBox="0 0 24 20" fill="none" xmlns="http://www.w3.org/2000/svg">
<path d="M21 0H3C1.35 0 0 1.35 0 3V13.5C0 15.15 1.35 16.5 3 16.5V19.5L7.95 16.5H21C22.65 16.5 24 15.15 24 13.5V3C24 1.35 22.65 0 21 0ZM14.25 12H5.25C4.8 12 4.5 11.7 4.5 11.25C4.5 10.8 4.8 10.5 5.25 10.5H14.25C14.7 10.5 15 10.8 15 11.25C15 11.7 14.7 12 14.25 12ZM18.75 6H5.25C4.8 6 4.5 5.7 4.5 5.25C4.5 4.8 4.8 4.5 5.25 4.5H18.75C19.2 4.5 19.5 4.8 19.5 5.25C19.5 5.7 19.2 6 18.75 6Z" fill="#8C8C8C"/>
</svg>
