<svg width="28" height="20" viewBox="0 0 28 20" fill="none" xmlns="http://www.w3.org/2000/svg">
<path d="M14 0.666992C7.77 0.666992 2.39167 4.49366 0 10.0003C2.39167 15.507 7.77 19.3337 14 19.3337C20.23 19.3337 25.6083 15.507 28 10.0003C25.6083 4.49366 20.23 0.666992 14 0.666992ZM14 17.0003C10.1267 17.0003 7 13.862 7 10.0003C7 6.12699 10.1267 3.00033 14 3.00033C17.8733 3.00033 21 6.12699 21 10.0003C21 13.862 17.8733 17.0003 14 17.0003Z" fill="#8C8C8C"/>
<path d="M14 13.5C15.933 13.5 17.5 11.933 17.5 10C17.5 8.067 15.933 6.5 14 6.5C12.067 6.5 10.5 8.067 10.5 10C10.5 11.933 12.067 13.5 14 13.5Z" fill="#8C8C8C"/>
</svg>
