<svg width="18" height="18" viewBox="0 0 18 18" fill="none" xmlns="http://www.w3.org/2000/svg">
<path d="M9 5.34375C6.96445 5.34375 5.30859 6.99961 5.30859 9.03516C5.30859 11.0707 6.96445 12.7266 9 12.7266C11.0355 12.7266 12.6914 11.0707 12.6914 9.03516C12.6914 6.99961 11.0355 5.34375 9 5.34375ZM9 5.34375C6.96445 5.34375 5.30859 6.99961 5.30859 9.03516C5.30859 11.0707 6.96445 12.7266 9 12.7266C11.0355 12.7266 12.6914 11.0707 12.6914 9.03516C12.6914 6.99961 11.0355 5.34375 9 5.34375ZM15.3633 0H2.63672C1.18125 0 0 1.18125 0 2.63672V15.3633C0 16.8188 1.18125 18 2.63672 18H15.3633C16.8188 18 18 16.8188 18 15.3633V2.63672C18 1.18125 16.8188 0 15.3633 0ZM9 13.7812C6.38441 13.7812 4.25391 11.6507 4.25391 9.03516C4.25391 6.4195 6.38441 4.28906 9 4.28906C11.6156 4.28906 13.7461 6.4195 13.7461 9.03516C13.7461 11.6507 11.6156 13.7812 9 13.7812ZM14.8008 4.28906C14.2207 4.28906 13.7461 3.81445 13.7461 3.23438C13.7461 2.6543 14.2207 2.17969 14.8008 2.17969C15.3809 2.17969 15.8555 2.6543 15.8555 3.23438C15.8555 3.81445 15.3809 4.28906 14.8008 4.28906ZM9 5.34375C6.96445 5.34375 5.30859 6.99961 5.30859 9.03516C5.30859 11.0707 6.96445 12.7266 9 12.7266C11.0355 12.7266 12.6914 11.0707 12.6914 9.03516C12.6914 6.99961 11.0355 5.34375 9 5.34375ZM9 5.34375C6.96445 5.34375 5.30859 6.99961 5.30859 9.03516C5.30859 11.0707 6.96445 12.7266 9 12.7266C11.0355 12.7266 12.6914 11.0707 12.6914 9.03516C12.6914 6.99961 11.0355 5.34375 9 5.34375ZM9 5.34375C6.96445 5.34375 5.30859 6.99961 5.30859 9.03516C5.30859 11.0707 6.96445 12.7266 9 12.7266C11.0355 12.7266 12.6914 11.0707 12.6914 9.03516C12.6914 6.99961 11.0355 5.34375 9 5.34375Z" fill="#828282"/>
</svg>
