<svg width="21" height="13" viewBox="0 0 21 13" fill="none" xmlns="http://www.w3.org/2000/svg">
<path d="M20.8886 11.7404C20.8632 11.681 20.8395 11.6316 20.8175 11.5921C20.4531 10.8801 19.7569 10.0062 18.7291 8.97013L18.7074 8.94641L18.6965 8.93477L18.6855 8.92285H18.6745C18.2081 8.44039 17.9127 8.11599 17.789 7.94991C17.5627 7.63354 17.5119 7.3133 17.6356 6.98882C17.723 6.74366 18.0513 6.22593 18.6197 5.43491C18.9187 5.01569 19.1555 4.67971 19.3303 4.42657C20.5914 2.60744 21.1382 1.44499 20.9705 0.938763L20.9053 0.820465C20.8616 0.749245 20.7486 0.684092 20.5666 0.624673C20.3841 0.565379 20.1509 0.555573 19.8666 0.595089L16.7177 0.61869C16.6667 0.599077 16.5939 0.600905 16.499 0.624673C16.4042 0.648441 16.3568 0.660366 16.3568 0.660366L16.302 0.690076L16.2585 0.725768C16.222 0.74937 16.1819 0.79088 16.1382 0.850216C16.0946 0.909344 16.0582 0.978735 16.0291 1.05781C15.6863 2.01479 15.2965 2.90453 14.859 3.72701C14.5893 4.21744 14.3416 4.64248 14.1154 5.00236C13.8895 5.36211 13.7 5.62717 13.547 5.79707C13.3938 5.96715 13.2556 6.10339 13.1314 6.20632C13.0075 6.30928 12.9128 6.35279 12.8473 6.33687C12.7816 6.32096 12.7198 6.30517 12.6612 6.28938C12.5592 6.21816 12.4772 6.1213 12.4154 5.99872C12.3532 5.87615 12.3114 5.72187 12.2896 5.536C12.2678 5.35002 12.2549 5.19005 12.2513 5.05554C12.2478 4.92121 12.2494 4.73119 12.2568 4.48603C12.2644 4.24075 12.2678 4.0748 12.2678 3.98779C12.2678 3.6872 12.2732 3.36098 12.284 3.00904C12.2951 2.65709 12.304 2.37824 12.3115 2.17281C12.3189 1.96717 12.3223 1.7496 12.3223 1.52024C12.3223 1.29087 12.3095 1.11099 12.284 0.980439C12.2589 0.850049 12.2204 0.723483 12.1695 0.600781C12.1184 0.478203 12.0436 0.383382 11.9454 0.316069C11.847 0.248838 11.7247 0.195485 11.5791 0.155845C11.1928 0.0609823 10.7008 0.00966592 10.1029 0.00168799C8.7472 -0.0141017 7.87608 0.0808854 7.48975 0.286525C7.33668 0.37341 7.19817 0.492123 7.07432 0.642291C6.94308 0.816351 6.92477 0.911339 7.01952 0.926962C7.45693 0.998057 7.7666 1.16813 7.94885 1.43701L8.01452 1.57949C8.06561 1.68229 8.11662 1.86429 8.16767 2.12523C8.21864 2.38618 8.25154 2.67484 8.26601 2.99104C8.3024 3.56849 8.3024 4.06279 8.26601 4.47398C8.22952 4.88535 8.19505 5.20559 8.16216 5.43495C8.12926 5.66432 8.08009 5.85018 8.01452 5.99249C7.94885 6.13485 7.90515 6.22186 7.88325 6.25344C7.86138 6.28502 7.84315 6.30492 7.82867 6.31273C7.73393 6.35212 7.63539 6.37219 7.53341 6.37219C7.43127 6.37219 7.30743 6.31676 7.16167 6.20599C7.01595 6.09521 6.86472 5.94305 6.70798 5.74925C6.55123 5.55541 6.37446 5.28453 6.17758 4.93658C5.98085 4.58863 5.77673 4.17739 5.56534 3.70287L5.39044 3.35874C5.2811 3.13735 5.13175 2.81499 4.94222 2.39195C4.75258 1.96875 4.58496 1.55938 4.43924 1.16393C4.38099 0.997849 4.29349 0.871408 4.17688 0.784398L4.12215 0.748705C4.08577 0.717126 4.02737 0.683593 3.94725 0.647859C3.86702 0.612166 3.78331 0.58657 3.69576 0.570822L0.699899 0.594423C0.39376 0.594423 0.186042 0.669673 0.0766687 0.819966L0.0328963 0.891061C0.0110293 0.93066 0 0.993902 0 1.08095C0 1.16796 0.0218671 1.27475 0.0656395 1.40119C0.502981 2.51644 0.978579 3.59201 1.49244 4.62806C2.00629 5.66411 2.45282 6.49868 2.83176 7.13101C3.21078 7.7638 3.59711 8.36102 3.99076 8.92239C4.3844 9.48396 4.64497 9.84384 4.77246 10.0019C4.9001 10.1603 5.00036 10.2788 5.07323 10.3578L5.34663 10.6425C5.52157 10.8324 5.77846 11.0597 6.11741 11.3246C6.45645 11.5897 6.83179 11.8506 7.24362 12.1079C7.65554 12.3647 8.13474 12.5743 8.68149 12.7364C9.22816 12.8986 9.76025 12.9638 10.2778 12.9323H11.5352C11.7902 12.9084 11.9835 12.8214 12.1148 12.6713L12.1583 12.6118C12.1875 12.5646 12.2149 12.4913 12.2402 12.3926C12.2658 12.2937 12.2785 12.1848 12.2785 12.0664C12.271 11.7263 12.2949 11.4199 12.3494 11.1471C12.4039 10.8743 12.466 10.6687 12.5355 10.5302C12.6049 10.3918 12.6833 10.2751 12.7705 10.1804C12.8579 10.0855 12.9201 10.0281 12.9567 10.0083C12.993 9.9884 13.022 9.97489 13.0438 9.96679C13.2188 9.90355 13.4246 9.9648 13.6618 10.1508C13.8987 10.3367 14.1209 10.5662 14.3288 10.8389C14.5366 11.1119 14.7862 11.4182 15.0777 11.7582C15.3694 12.0984 15.6245 12.3512 15.843 12.5175L16.0616 12.6599C16.2076 12.7549 16.3972 12.8419 16.6304 12.921C16.8633 13 17.0674 13.0198 17.2426 12.9802L20.0415 12.9329C20.3184 12.9329 20.5338 12.8831 20.6866 12.7845C20.8397 12.6856 20.9306 12.5767 20.96 12.4582C20.9892 12.3396 20.9908 12.2051 20.9655 12.0547C20.9396 11.9046 20.9141 11.7997 20.8886 11.7404Z" fill="#828282"/>
</svg>
