<svg width="47" height="17" fill="none" xmlns="http://www.w3.org/2000/svg"><path d="M31.102 3.565v7.895a.215.215 0 01-.22.219h-1.624a.215.215 0 01-.22-.22V3.566c0-.126.094-.22.22-.22h1.623c.126 0 .22.094.22.22zm12.667-.22h-1.812a.217.217 0 00-.205.157l-1.434 4.675-1.575-4.675c-.032-.094-.11-.14-.205-.14h-1.276a.224.224 0 00-.205.14l-1.576 4.675-1.465-4.675a.217.217 0 00-.204-.156H32c-.063 0-.142.03-.174.093a.206.206 0 00-.031.188l2.678 7.91c.032.095.11.142.205.142h1.45a.224.224 0 00.204-.141l1.56-4.612 1.56 4.612c.031.094.11.14.205.14h1.449a.224.224 0 00.205-.14l2.678-7.91c.016-.063.016-.142-.031-.189a.225.225 0 00-.19-.093zm2.74 0h-1.622a.215.215 0 00-.22.22v7.895c0 .125.094.219.22.219h1.623c.126 0 .22-.094.22-.22V3.566a.225.225 0 00-.22-.22zm-18.4 8.068c.094.11.015.266-.127.266h-2a.255.255 0 01-.205-.094l-.331-.407a4.461 4.461 0 01-2.38.704c-2.425 0-4.395-1.954-4.395-4.362 0-2.408 1.97-4.362 4.396-4.362s4.395 1.954 4.395 4.362c0 .86-.252 1.673-.693 2.36l1.34 1.533zm-3.955-1.767L23.287 8.6c-.094-.11-.015-.282.126-.282h1.828c.094-.25.142-.531.142-.813 0-1.297-.977-2.423-2.316-2.423-1.34 0-2.316 1.126-2.316 2.423 0 1.298.977 2.408 2.316 2.408a2.15 2.15 0 001.087-.266zm-10.493 1.72c.047.328-.063.469-.157.469-.11 0-.252-.14-.426-.39-.173-.267-.236-.564-.142-.704.048-.094.174-.141.316-.094.267.094.378.516.41.719zm-1.56.72c.331.28.442.624.268.859-.094.125-.252.203-.457.203a.787.787 0 01-.52-.187c-.299-.266-.393-.704-.189-.938.08-.094.205-.141.363-.141.173-.016.362.062.535.203zm-.567 2.72c1.45 0 3.025.5 4.774 2.032.173.156.41-.032.252-.235-1.717-2.142-3.293-2.548-4.868-2.892-1.938-.422-2.93-1.5-3.624-2.689-.142-.235-.205-.188-.205.11-.015.375.016.86.095 1.344h-.236c-2.757 0-5.01-2.22-5.01-4.972 0-2.751 2.237-4.971 5.01-4.971 2.757 0 5.01 2.22 5.01 4.971 0 .188-.016.391-.032.579-.362-.063-1.087-.078-1.591-.031-.19.015-.158.109-.016.125 1.654.297 2.789 1.313 3.056 3.158 0 .046.064.062.08.015a7.445 7.445 0 001.07-3.861C15.285 3.36 11.898 0 7.723 0 3.53 0 .144 3.361.144 7.52c0 4.159 3.387 7.52 7.578 7.52 1.102-.016 2.205-.235 3.812-.235z" fill="#FF8C00"/></svg>