<svg width="39" height="40" fill="none" xmlns="http://www.w3.org/2000/svg"><path d="M19.143 40C8.615 40 .05 31.028.05 20S8.615 0 19.143 0s19.093 8.972 19.093 20-8.565 20-19.093 20zm0-38C9.669 2 1.959 10.076 1.959 20s7.71 18 17.184 18 17.184-8.076 17.184-18-7.71-18-17.184-18z" fill="#8C8C8C"/><path d="M19.143 24c-1.054 0-1.91-.896-1.91-2V10c0-1.104.856-2 1.91-2 1.054 0 1.909.896 1.909 2v12c0 1.104-.855 2-1.91 2zm0 8c1.054 0 1.909-.895 1.909-2s-.855-2-1.91-2c-1.054 0-1.909.895-1.909 2s.855 2 1.91 2z" fill="#8C8C8C"/></svg>