<svg width="39" height="40" fill="none" xmlns="http://www.w3.org/2000/svg"><path d="M19.143 40C8.615 40 .05 31.028.05 20S8.615 0 19.143 0s19.093 8.972 19.093 20-8.565 20-19.093 20zm0-38C9.669 2 1.959 10.076 1.959 20s7.71 18 17.184 18 17.184-8.076 17.184-18-7.71-18-17.184-18z" fill="#1CCB6A"/><path d="M17.233 28c-.488 0-.977-.197-1.35-.587l-5.727-6a2.065 2.065 0 010-2.828 1.847 1.847 0 012.7 0l4.377 4.587 8.197-8.587a1.847 1.847 0 012.7 0 2.066 2.066 0 010 2.828l-9.547 10a1.86 1.86 0 01-1.35.587z" fill="#1CCB6A"/></svg>