<svg width="39" height="36" fill="none" xmlns="http://www.w3.org/2000/svg"><path d="M19.142 2.008c.644 0 1.289.336 1.655 1.008L36.066 30.98c.731 1.34-.187 3.01-1.655 3.01H3.874c-1.468 0-2.386-1.67-1.655-3.01L17.487 3.016c.367-.672 1.012-1.008 1.655-1.008zm0-2.008c-1.382 0-2.62.754-3.31 2.016L.564 29.98a4.155 4.155 0 00.005 4.014C1.26 35.25 2.495 36 3.874 36H34.41c1.378 0 2.613-.75 3.304-2.006a4.156 4.156 0 00.006-4.014L22.452 2.016C21.763.754 20.526 0 19.142 0z" fill="#000"/><path d="M19.143 24c-1.054 0-1.91-.896-1.91-2V12c0-1.104.856-2 1.91-2 1.054 0 1.909.896 1.909 2v10c0 1.104-.854 2-1.91 2zm0 6c1.054 0 1.909-.895 1.909-2s-.855-2-1.91-2c-1.054 0-1.909.895-1.909 2s.855 2 1.91 2z" fill="#000"/></svg>