<svg width="64" height="42" fill="none" xmlns="http://www.w3.org/2000/svg"><g clip-path="url(#clip0)"><path d="M14.96 12c-.37 0-.717.084-1.077.114A48.194 48.194 0 0117.823 0h-5.728S.64 12 .64 27c0 8.283 6.412 15 14.32 15 7.907 0 14.32-6.717 14.32-15 0-8.283-6.413-15-14.32-15z" fill="#10C2AD"/></g><g clip-path="url(#clip1)"><path d="M49.328 12c-.37 0-.716.084-1.077.114A48.203 48.203 0 0152.19 0h-5.727S35.008 12 35.008 27c0 8.283 6.412 15 14.32 15 7.907 0 14.32-6.717 14.32-15 0-8.283-6.413-15-14.32-15z" fill="#10C2AD"/></g><defs><clipPath id="clip0"><rect x=".64" width="28.64" height="42" rx="5" fill="#fff"/></clipPath><clipPath id="clip1"><rect x="35.008" width="28.64" height="42" rx="5" fill="#fff"/></clipPath></defs></svg>