<svg width="22" height="21" fill="none" xmlns="http://www.w3.org/2000/svg"><path d="M19 2.334v2.167c0 1.191-.9 2.166-2 2.166s-2-.975-2-2.166V2.334H7v2.167c0 1.191-.9 2.166-2 2.166s-2-.975-2-2.166V2.334H0v18.417h22V2.334h-3z" fill="#8C8C8C"/><path d="M5 5.584c-.552 0-1-.486-1-1.084V1.25C4 .652 4.448.167 5 .167S6 .652 6 1.25V4.5c0 .598-.448 1.084-1 1.084zm12 0c-.552 0-1-.486-1-1.084V1.25c0-.598.448-1.083 1-1.083s1 .485 1 1.083V4.5c0 .598-.448 1.084-1 1.084z" fill="#8C8C8C"/><path fill="#F5F5F5" d="M12 8.834h7v8.667h-7zm-9 0h7v8.667H3z"/></svg>