<svg width="64" height="42" viewBox="0 0 64 42" fill="none" xmlns="http://www.w3.org/2000/svg">
<g clip-path="url(#clip0)">
<path d="M14.9594 12C14.59 12 14.2434 12.084 13.8826 12.114C14.5756 8.346 15.7871 4.263 17.8234 0H12.0955C12.0955 0 0.639648 12 0.639648 27C0.639648 35.283 7.05204 42 14.9594 42C22.8668 42 29.2792 35.283 29.2792 27C29.2792 18.717 22.8668 12 14.9594 12Z" fill="#10C2AD"/>
</g>
<g clip-path="url(#clip1)">
<path d="M49.3276 12C48.9581 12 48.6116 12.084 48.2507 12.114C48.9438 8.346 50.1553 4.263 52.1915 0H46.4636C46.4636 0 35.0078 12 35.0078 27C35.0078 35.283 41.4202 42 49.3276 42C57.235 42 63.6474 35.283 63.6474 27C63.6474 18.717 57.235 12 49.3276 12Z" fill="#10C2AD"/>
</g>
<defs>
<clipPath id="clip0">
<rect x="0.639648" width="28.6395" height="42" rx="5" fill="white"/>
</clipPath>
<clipPath id="clip1">
<rect x="35.0078" width="28.6395" height="42" rx="5" fill="white"/>
</clipPath>
</defs>
</svg>
