<svg width="42" height="31" viewBox="0 0 42 31" fill="none" xmlns="http://www.w3.org/2000/svg">
<path d="M23.8839 0.714277L40.562 15.1216C40.7929 15.3211 40.7928 15.6789 40.562 15.8784L23.8839 30.2857C23.5599 30.5656 23.057 30.3354 23.057 29.9074V21.027C23.057 20.8118 22.9206 20.6246 22.7088 20.5864C21.3705 20.3448 16.1168 19.9692 5.9662 25.8333C1.89638 28.1845 1.4943 29.9167 1.10903 29.2778C0.365484 28.0448 3.52811 21.4866 7.45413 18.0833C12.7667 13.4781 21.0049 10.2411 22.7325 9.59203C22.9303 9.51771 23.057 9.33118 23.057 9.11988V1.09265C23.057 0.664566 23.5599 0.434434 23.8839 0.714277Z" fill="#BFBFBF" stroke="#BFBFBF"/>
</svg>
