<svg width="47" height="17" viewBox="0 0 47 17" fill="none" xmlns="http://www.w3.org/2000/svg">
<path d="M31.1017 3.56455V11.4597C31.1017 11.5848 31.0071 11.6786 30.8811 11.6786H29.2584C29.1323 11.6786 29.0378 11.5848 29.0378 11.4597V3.56455C29.0378 3.43948 29.1323 3.34567 29.2584 3.34567H30.8811C31.0071 3.34567 31.1017 3.43948 31.1017 3.56455ZM43.7685 3.34567H41.9567C41.8622 3.34567 41.7834 3.40821 41.7519 3.50201L40.3182 8.17657L38.7427 3.50201C38.7112 3.40821 38.6325 3.36131 38.5379 3.36131H37.2618C37.1673 3.36131 37.0885 3.42384 37.057 3.50201L35.4815 8.17657L34.0163 3.50201C33.9848 3.40821 33.906 3.34567 33.8115 3.34567H31.9997C31.9367 3.34567 31.8579 3.37694 31.8264 3.43948C31.7791 3.50201 31.7791 3.56455 31.7949 3.62708L34.4732 11.5379C34.5047 11.6317 34.5835 11.6786 34.678 11.6786H36.1274C36.222 11.6786 36.3008 11.6161 36.3323 11.5379L37.892 6.92586L39.4517 11.5379C39.4832 11.6317 39.562 11.6786 39.6565 11.6786H41.106C41.2005 11.6786 41.2793 11.6161 41.3108 11.5379L43.9891 3.62708C44.0048 3.56455 44.0048 3.48638 43.9576 3.43948C43.9103 3.37694 43.8473 3.34567 43.7685 3.34567ZM46.5098 3.34567H44.8871C44.7611 3.34567 44.6665 3.43948 44.6665 3.56455V11.4597C44.6665 11.5848 44.7611 11.6786 44.8871 11.6786H46.5098C46.6359 11.6786 46.7304 11.5848 46.7304 11.4597V3.56455C46.7304 3.43948 46.6201 3.34567 46.5098 3.34567ZM28.1083 11.4128C28.2028 11.5222 28.124 11.6786 27.9822 11.6786H25.9814C25.9026 11.6786 25.8238 11.6473 25.7766 11.5848L25.4457 11.1783C24.7525 11.6161 23.9333 11.8818 23.0667 11.8818C20.6405 11.8818 18.6712 9.92758 18.6712 7.51995C18.6712 5.11231 20.6405 3.15807 23.0667 3.15807C25.493 3.15807 27.4623 5.11231 27.4623 7.51995C27.4623 8.37982 27.2102 9.19278 26.7691 9.88068L28.1083 11.4128ZM24.1538 9.64617L23.2873 8.59869C23.1928 8.48925 23.2716 8.31728 23.4133 8.31728H25.2409C25.3354 8.06714 25.3827 7.78572 25.3827 7.50431C25.3827 6.20669 24.4059 5.08105 23.0667 5.08105C21.7276 5.08105 20.7508 6.20669 20.7508 7.50431C20.7508 8.80193 21.7276 9.91195 23.0667 9.91195C23.4606 9.92758 23.823 9.81814 24.1538 9.64617ZM13.6611 11.3659C13.7084 11.6942 13.5981 11.8349 13.5036 11.8349C13.3933 11.8349 13.2515 11.6942 13.0782 11.4441C12.9049 11.1783 12.8419 10.8813 12.9364 10.7405C12.9837 10.6467 13.1097 10.5998 13.2515 10.6467C13.5194 10.7405 13.6296 11.1627 13.6611 11.3659ZM12.1014 12.0851C12.4323 12.3665 12.5426 12.7104 12.3693 12.9449C12.2747 13.07 12.1172 13.1482 11.9124 13.1482C11.7233 13.1482 11.5343 13.0856 11.3925 12.9606C11.0931 12.6948 10.9986 12.257 11.2034 12.0225C11.2822 11.9287 11.4082 11.8818 11.5658 11.8818C11.7391 11.8662 11.9281 11.9444 12.1014 12.0851ZM11.5343 14.8054C12.9837 14.8054 14.5592 15.3057 16.3079 16.8378C16.4813 16.9941 16.7176 16.8065 16.56 16.6033C14.8428 14.4614 13.2673 14.055 11.6918 13.711C9.75396 13.2889 8.76141 12.2101 8.0682 11.022C7.92641 10.7874 7.86339 10.8344 7.86339 11.1314C7.84764 11.5066 7.87915 11.9913 7.95792 12.4759C7.87915 12.4759 7.80037 12.4759 7.7216 12.4759C4.96451 12.4759 2.71158 10.2559 2.71158 7.50431C2.71158 4.75273 4.94876 2.53271 7.7216 2.53271C10.4787 2.53271 12.7316 4.75273 12.7316 7.50431C12.7316 7.69192 12.7159 7.89516 12.7001 8.08277C12.3377 8.02024 11.613 8.0046 11.1089 8.0515C10.9198 8.06714 10.9513 8.16094 11.0931 8.17657C12.7474 8.47362 13.8817 9.48983 14.1495 11.3346C14.1495 11.3815 14.2126 11.3972 14.2283 11.3503C14.9058 10.2246 15.2996 8.91137 15.2996 7.48868C15.2839 3.36131 11.8966 0 7.7216 0C3.53083 0 0.143555 3.36131 0.143555 7.51995C0.143555 11.6786 3.53083 15.0399 7.7216 15.0399C8.82443 15.0243 9.92727 14.8054 11.5343 14.8054Z" fill="#FF8C00"/>
</svg>
