<svg width="18" height="18" fill="none" xmlns="http://www.w3.org/2000/svg"><path d="M9 5.344a3.695 3.695 0 00-3.691 3.691A3.695 3.695 0 009 12.727a3.696 3.696 0 003.691-3.692A3.695 3.695 0 009 5.344zm0 0a3.695 3.695 0 00-3.691 3.691A3.695 3.695 0 009 12.727a3.696 3.696 0 003.691-3.692A3.695 3.695 0 009 5.344zM15.363 0H2.637A2.638 2.638 0 000 2.637v12.726A2.638 2.638 0 002.637 18h12.726A2.638 2.638 0 0018 15.363V2.637A2.638 2.638 0 0015.363 0zM9 13.781a4.753 4.753 0 01-4.746-4.746A4.753 4.753 0 019 4.29a4.753 4.753 0 014.746 4.746A4.753 4.753 0 019 13.781zm5.8-9.492c-.58 0-1.054-.475-1.054-1.055s.475-1.054 1.055-1.054 1.054.474 1.054 1.054c0 .58-.474 1.055-1.054 1.055zM9 5.344a3.695 3.695 0 00-3.691 3.691A3.695 3.695 0 009 12.727a3.696 3.696 0 003.691-3.692A3.695 3.695 0 009 5.344zm0 0a3.695 3.695 0 00-3.691 3.691A3.695 3.695 0 009 12.727a3.696 3.696 0 003.691-3.692A3.695 3.695 0 009 5.344zm0 0a3.695 3.695 0 00-3.691 3.691A3.695 3.695 0 009 12.727a3.696 3.696 0 003.691-3.692A3.695 3.695 0 009 5.344z" fill="#828282"/></svg>