<svg width="21" height="13" fill="none" xmlns="http://www.w3.org/2000/svg"><path d="M20.889 11.74a1.617 1.617 0 00-.072-.148c-.364-.712-1.06-1.586-2.088-2.622l-.022-.024-.01-.011-.011-.012h-.012c-.466-.483-.761-.807-.885-.973-.226-.316-.277-.637-.153-.961.087-.245.415-.763.984-1.554.299-.42.535-.755.71-1.008 1.261-1.82 1.808-2.982 1.64-3.488L20.905.82c-.043-.07-.156-.136-.338-.195-.183-.06-.416-.07-.7-.03l-3.15.024c-.05-.02-.123-.018-.218.006l-.142.035-.055.03-.043.036a.503.503 0 00-.12.124.832.832 0 00-.11.208 20.135 20.135 0 01-1.17 2.669c-.27.49-.517.915-.744 1.275a6.09 6.09 0 01-.568.795c-.153.17-.291.306-.416.41-.123.102-.218.146-.284.13a7.496 7.496 0 01-.186-.048.768.768 0 01-.246-.29 1.38 1.38 0 01-.125-.463 5.476 5.476 0 01-.039-.48c-.003-.135-.002-.325.006-.57.007-.245.01-.411.01-.498 0-.3.006-.627.017-.979l.027-.836c.008-.206.011-.423.011-.653 0-.23-.012-.409-.038-.54a1.952 1.952 0 00-.115-.38.628.628 0 00-.224-.284 1.21 1.21 0 00-.366-.16C11.193.06 10.701.01 10.103.002 8.747-.014 7.876.08 7.49.287a1.498 1.498 0 00-.416.355c-.13.174-.15.27-.054.285.437.071.747.241.929.51l.066.142c.05.103.102.285.153.546.05.261.084.55.098.866.036.577.036 1.072 0 1.483a19.11 19.11 0 01-.104.96 2.049 2.049 0 01-.279.82.196.196 0 01-.054.059.763.763 0 01-.296.06c-.102 0-.226-.056-.371-.167a2.719 2.719 0 01-.454-.457 6.126 6.126 0 01-.53-.812c-.197-.348-.401-.76-.613-1.234l-.175-.344a33.628 33.628 0 01-.448-.967 19.48 19.48 0 01-.503-1.228.779.779 0 00-.262-.38L4.122.75a1.091 1.091 0 00-.426-.18L.7.594C.394.594.186.67.077.82L.033.891a.412.412 0 00-.033.19c0 .087.022.194.066.32a40.914 40.914 0 001.426 3.227c.514 1.036.96 1.87 1.34 2.503.379.633.765 1.23 1.159 1.791.393.562.654.922.781 1.08.128.158.228.277.301.356l.274.284c.175.19.431.418.77.683.34.265.715.526 1.127.783.412.257.89.466 1.437.628a4.602 4.602 0 001.597.196h1.257c.255-.024.448-.11.58-.26l.043-.06a.827.827 0 00.082-.22c.026-.098.038-.207.038-.326-.007-.34.017-.646.071-.919a2.56 2.56 0 01.187-.617c.069-.138.147-.255.235-.35a.97.97 0 01.186-.172.69.69 0 01.087-.041c.175-.063.38-.002.618.184.237.186.459.415.667.688.208.273.457.58.749.92.291.34.546.592.765.758l.219.143c.146.095.335.182.568.261.233.079.437.099.613.06l2.799-.048c.276 0 .492-.05.645-.149.153-.098.244-.207.273-.326a.995.995 0 00.005-.403 1.582 1.582 0 00-.076-.315z" fill="#828282"/></svg>