<svg width="20" height="14" fill="none" xmlns="http://www.w3.org/2000/svg"><path d="M19.15 1.35C18.608.366 18.019.185 16.82.116 15.623.034 12.611 0 10.002 0 7.39 0 4.376.034 3.18.116 1.984.186 1.394.366.846 1.349.288 2.33 0 4.021 0 6.996v.01c0 2.963.287 4.666.846 5.637.548.983 1.136 1.161 2.333 1.244 1.197.071 4.21.113 6.823.113 2.61 0 5.62-.042 6.82-.112 1.198-.083 1.787-.26 2.33-1.243.563-.971.848-2.674.848-5.637v-.012c0-2.976-.285-4.667-.85-5.648zM7.5 10.817V3.182L13.75 7 7.5 10.818z" fill="#828282"/></svg>