<svg width="39" height="40" viewBox="0 0 39 40" fill="none" xmlns="http://www.w3.org/2000/svg">
<path d="M19.1428 40C8.61493 40 0.0498047 31.028 0.0498047 20C0.0498047 8.972 8.61493 0 19.1428 0C29.6707 0 38.2359 8.972 38.2359 20C38.2359 31.028 29.6707 40 19.1428 40ZM19.1428 2C9.66887 2 1.95911 10.076 1.95911 20C1.95911 29.924 9.66887 38 19.1428 38C28.6168 38 36.3265 29.924 36.3265 20C36.3265 10.076 28.6168 2 19.1428 2Z" fill="#8C8C8C"/>
<path d="M19.1427 24C18.0888 24 17.2334 23.104 17.2334 22V10C17.2334 8.896 18.0888 8 19.1427 8C20.1966 8 21.052 8.896 21.052 10V22C21.052 23.104 20.1966 24 19.1427 24Z" fill="#8C8C8C"/>
<path d="M19.1427 32C20.1972 32 21.052 31.1046 21.052 30C21.052 28.8954 20.1972 28 19.1427 28C18.0882 28 17.2334 28.8954 17.2334 30C17.2334 31.1046 18.0882 32 19.1427 32Z" fill="#8C8C8C"/>
</svg>
