<svg width="39" height="40" viewBox="0 0 39 40" fill="none" xmlns="http://www.w3.org/2000/svg">
<path d="M19.1428 40C8.61493 40 0.0498047 31.028 0.0498047 20C0.0498047 8.972 8.61493 0 19.1428 0C29.6707 0 38.2359 8.972 38.2359 20C38.2359 31.028 29.6707 40 19.1428 40ZM19.1428 2C9.66887 2 1.95911 10.076 1.95911 20C1.95911 29.924 9.66887 38 19.1428 38C28.6168 38 36.3265 29.924 36.3265 20C36.3265 10.076 28.6168 2 19.1428 2Z" fill="#1CCB6A"/>
<path d="M17.2334 27.9995C16.7446 27.9995 16.2558 27.8035 15.8835 27.4135L10.1556 21.4135C9.40907 20.6315 9.40907 19.3675 10.1556 18.5855C10.9021 17.8035 12.1088 17.8035 12.8554 18.5855L17.2334 23.1715L25.43 14.5855C26.1766 13.8035 27.3832 13.8035 28.1298 14.5855C28.8763 15.3675 28.8763 16.6315 28.1298 17.4135L18.5833 27.4135C18.211 27.8035 17.7222 27.9995 17.2334 27.9995Z" fill="#1CCB6A"/>
</svg>
