<svg width="39" height="36" viewBox="0 0 39 36" fill="none" xmlns="http://www.w3.org/2000/svg">
<path d="M19.1424 2.008C19.7856 2.008 20.4308 2.344 20.7973 3.016L36.066 30.98C36.7971 32.32 35.8789 33.99 34.411 33.99H3.87366C2.40578 33.99 1.48763 32.32 2.21871 30.98L17.4874 3.016C17.8539 2.344 18.4991 2.008 19.1424 2.008ZM19.1424 0C17.7604 0 16.5215 0.754 15.8325 2.016L0.56376 29.98C-0.123417 31.238 -0.121508 32.738 0.569486 33.994C1.26048 35.25 2.49549 36 3.87366 36H34.411C35.7892 36 37.0242 35.25 37.7152 33.994C38.4062 32.738 38.4081 31.238 37.721 29.98L22.4523 2.016C21.7632 0.754 20.5263 0 19.1424 0Z" fill="black"/>
<path d="M19.1427 24C18.0888 24 17.2334 23.104 17.2334 22V12C17.2334 10.896 18.0888 10 19.1427 10C20.1966 10 21.052 10.896 21.052 12V22C21.052 23.104 20.1985 24 19.1427 24Z" fill="black"/>
<path d="M19.1427 30C20.1972 30 21.052 29.1046 21.052 28C21.052 26.8954 20.1972 26 19.1427 26C18.0882 26 17.2334 26.8954 17.2334 28C17.2334 29.1046 18.0882 30 19.1427 30Z" fill="black"/>
</svg>
