<svg width="39" height="40" viewBox="0 0 39 40" fill="none" xmlns="http://www.w3.org/2000/svg">
<path d="M19.1428 40C8.61493 40 0.0498047 31.028 0.0498047 20C0.0498047 8.972 8.61493 0 19.1428 0C29.6707 0 38.2359 8.972 38.2359 20C38.2359 31.028 29.6707 40 19.1428 40ZM19.1428 2C9.66887 2 1.95911 10.076 1.95911 20C1.95911 29.924 9.66887 38 19.1428 38C28.6168 38 36.3265 29.924 36.3265 20C36.3265 10.076 28.6168 2 19.1428 2Z" fill="#F45E17"/>
<path d="M21.8423 19.9995L26.2204 15.4135C26.9669 14.6315 26.9669 13.3675 26.2204 12.5855C25.4738 11.8035 24.2671 11.8035 23.5206 12.5855L19.1426 17.1715L14.7645 12.5855C14.018 11.8035 12.8113 11.8035 12.0648 12.5855C11.3182 13.3675 11.3182 14.6315 12.0648 15.4135L16.4428 19.9995L12.0648 24.5855C11.3182 25.3675 11.3182 26.6315 12.0648 27.4135C12.4371 27.8035 12.9259 27.9995 13.4147 27.9995C13.9034 27.9995 14.3922 27.8035 14.7645 27.4135L19.1426 22.8275L23.5206 27.4135C23.8929 27.8035 24.3817 27.9995 24.8705 27.9995C25.3593 27.9995 25.848 27.8035 26.2204 27.4135C26.9669 26.6315 26.9669 25.3675 26.2204 24.5855L21.8423 19.9995Z" fill="#F45E17"/>
</svg>
